<?xml version="1.0" standalone="no"?>
<!DOCTYPE svg PUBLIC "-//W3C//DTD SVG 20010904//EN"
 "http://www.w3.org/TR/2001/REC-SVG-20010904/DTD/svg10.dtd">
<svg version="1.0" xmlns="http://www.w3.org/2000/svg"
 width="1024.000000pt" height="1024.000000pt" viewBox="0 0 1024.000000 1024.000000"
 preserveAspectRatio="xMidYMid meet">
<metadata>
Created by potrace 1.11, written by Peter Selinger 2001-2013
</metadata>
<g transform="translate(0.000000,1024.000000) scale(0.100000,-0.100000)"
fill="#000000" stroke="none">
<path d="M0 5120 l0 -5120 5120 0 5120 0 0 5120 0 5120 -5120 0 -5120 0 0
-5120z m5345 4280 c574 -33 1064 -150 1574 -376 80 -35 146 -66 148 -68 2 -2
-78 -84 -179 -182 -101 -98 -249 -244 -330 -323 l-148 -145 -167 57 c-251 85
-468 134 -753 169 -160 20 -670 17 -835 -5 -493 -66 -938 -218 -1336 -457
-1048 -631 -1655 -1820 -1588 -3112 27 -528 138 -965 360 -1413 81 -165 225
-409 241 -410 5 0 531 507 1030 993 l157 153 78 -59 c107 -81 196 -135 341
-204 247 -119 720 -255 1057 -304 149 -22 491 -25 610 -5 190 31 338 100 422
195 84 96 118 205 111 363 -3 88 -7 107 -37 167 -70 143 -213 260 -476 390
l-145 71 386 385 385 385 72 -39 c189 -103 412 -270 540 -406 187 -198 289
-411 328 -679 17 -118 6 -398 -20 -519 -63 -297 -177 -510 -385 -718 -271
-270 -616 -429 -1091 -500 -139 -21 -528 -29 -711 -15 -439 35 -880 134 -1282
288 -79 30 -147 53 -151 51 -5 -2 -293 -281 -640 -621 l-632 -618 -87 80
c-703 645 -1157 1511 -1301 2481 -40 270 -46 360 -45 695 0 248 4 367 17 480
65 552 188 989 409 1445 311 645 757 1170 1338 1577 769 539 1749 809 2735
753z m2612 -1043 c689 -606 1149 -1428 1327 -2367 60 -315 80 -582 73 -950 -5
-265 -19 -426 -52 -634 -254 -1576 -1311 -2824 -2805 -3313 -1020 -333 -2180
-284 -3158 133 -94 41 -280 130 -291 140 -6 6 27 40 352 356 l287 280 158 -60
c248 -94 463 -150 752 -193 171 -26 627 -37 818 -20 1307 118 2368 914 2829
2121 289 757 306 1664 46 2440 -99 296 -231 564 -406 823 l-80 119 -551 -551
c-303 -303 -555 -551 -560 -551 -4 0 -38 27 -74 61 -173 159 -360 272 -612
372 -328 130 -617 185 -910 174 -406 -16 -652 -116 -739 -301 -33 -72 -46
-166 -33 -238 39 -208 219 -359 657 -549 61 -26 110 -51 110 -56 0 -4 -176
-182 -391 -395 l-390 -387 -131 69 c-558 292 -821 594 -899 1030 -24 130 -23
392 0 520 49 269 160 476 360 675 256 254 598 411 1056 484 609 97 1220 17
1797 -234 70 -31 135 -59 144 -62 12 -3 189 169 599 581 321 322 587 586 591
586 5 0 62 -47 126 -103z"/>
</g>
</svg>
