<?xml version="1.0" encoding="utf-8"?>
<!-- Generator: Adobe Illustrator 21.0.0, SVG Export Plug-In . SVG Version: 6.00 Build 0)  -->
<svg version="1.1" id="Layer_1" xmlns="http://www.w3.org/2000/svg" xmlns:xlink="http://www.w3.org/1999/xlink" x="0px" y="0px"
	 viewBox="0 0 100 100" style="enable-background:new 0 0 100 100;" xml:space="preserve">
<style type="text/css">
	.st0{fill:#231F20;}
</style>
<g>
	<rect x="6.8" y="2.5" class="st0" width="8.6" height="95"/>
	<path class="st0" d="M29.7,21.7c2.6-2,5.6-2.8,8.9-2.5c2.7,0.2,5.6,0.8,8.6,1.6V8.8c-3-0.8-5.9-1.4-8.6-1.6
		c-3.3-0.3-6.3,0.6-8.9,2.5c-2.6,2-4.5,5.3-5.6,10v11.9C25.2,27,27.1,23.7,29.7,21.7z"/>
	<path class="st0" d="M84.4,12.5c-3.5,2-7.2,2.8-11,2.5c-1-0.1-2.1-0.3-3.2-0.4v11.9c1.1,0.1,2.2,0.3,3.2,0.4
		c3.8,0.3,7.5-0.6,11-2.5c3.5-2,6.5-5.3,8.8-10V2.5C90.9,7.2,88,10.5,84.4,12.5z"/>
	<path class="st0" d="M49.4,21.3c-0.8-0.2-1.5-0.4-2.3-0.6v16.2c0.8,0.2,1.5,0.3,2.3,0.6c3.9,1.2,7.9,2.3,12,3.5
		c3,0.8,5.9,1.4,8.7,1.7V26.5c-2.8-0.4-5.7-0.9-8.7-1.7C57.3,23.6,53.3,22.4,49.4,21.3z"/>
	<path class="st0" d="M84.4,40.5c-3.5,2-7.2,2.8-11,2.5c-1-0.1-2.1-0.3-3.2-0.4v16.7c2.1,0.3,4.2,0.4,6.2,0.3c3.1-0.1,6-1.4,8.9-3.6
		c2.9-2.3,5.5-5.7,7.9-10.4V30.6C90.9,35.2,88,38.6,84.4,40.5z"/>
	<path class="st0" d="M46.1,54.2c0.3,0,0.7,0.1,1,0.2V36.9c-3-0.8-5.9-1.4-8.6-1.6c-3.3-0.3-6.3,0.6-8.9,2.5c-2.6,2-4.5,5.3-5.6,10
		V63c3.5-3.5,7.1-5.9,11-7.3C39,54.3,42.7,53.8,46.1,54.2z"/>
</g>
</svg>
