<?xml version="1.0" encoding="UTF-8"?>
<svg width="21px" height="15px" viewBox="0 0 21 15" version="1.1" xmlns="http://www.w3.org/2000/svg" xmlns:xlink="http://www.w3.org/1999/xlink">
    <!-- Generator: Sketch 51.1 (57501) - http://www.bohemiancoding.com/sketch -->
    <title>Pacer Symbol</title>
    <desc>Created with Sketch.</desc>
    <defs></defs>
    <g id="Page-1" stroke="none" stroke-width="1" fill="none" fill-rule="evenodd">
        <g id="Pacer-Symbol" fill="#000000">
            <path d="M17.2665683,6.62771767 C16.7641191,7.3181056 16.2986945,7.95760991 15.8228668,8.61127371 C16.4122883,9.28323491 16.9825191,9.94187716 17.5636052,10.5907565 C17.7372914,10.784722 17.8063652,10.9850237 17.7412975,11.2394418 C17.4695252,12.3007565 17.2040852,13.3637522 16.9325714,14.4251961 C16.8248575,14.8462953 16.5636822,15.0302392 16.1906575,14.9611875 C15.5815283,14.8482996 15.4238668,14.6872435 15.5052822,14.1743987 C15.607956,13.5275884 15.7411283,12.8854978 15.8707468,12.243278 C15.9211468,11.993903 15.8800514,11.7861013 15.7155406,11.5841185 C15.0563991,10.7748944 14.4119898,9.95357974 13.7525898,9.14454957 C13.2042637,8.47168319 13.1602606,7.77062716 13.6501745,7.04021767 C14.1055191,6.36140302 14.5708791,5.68937716 15.0265468,5.01082112 C15.2952175,4.6106056 15.2320237,4.52377371 14.8045283,4.33717888 C14.244636,4.09278233 13.8436975,4.20444181 13.4618852,4.67526078 C13.1518606,5.05750216 12.7666237,5.37916164 12.4108514,5.7236444 C12.1408237,5.9849806 11.8181345,6.00735129 11.5773775,5.79010991 C11.3517406,5.58657543 11.3222114,5.25392457 11.5441006,4.97532543 C12.1206637,4.25131681 12.6958698,3.52465733 13.309716,2.83297629 C13.450836,2.67392457 13.7434791,2.58321336 13.9695037,2.57720043 C14.9700729,2.55023922 15.972516,2.54280388 16.9728914,2.57267457 C17.8086268,2.59763147 18.4957468,2.93991595 18.8968145,3.71480819 C18.9758391,3.8673944 19.014996,4.06297629 19.0055622,4.23502371 C18.9755806,4.78284698 18.918396,5.32944181 18.8626975,5.87558405 C18.8355591,6.14189871 18.9376514,6.31905388 19.1575375,6.46963578 C19.6720052,6.82226509 20.1730975,7.1943556 20.6793591,7.55894612 C21.0106422,7.79752371 21.0720268,8.02000216 20.8914268,8.32349353 C20.7371252,8.58269612 20.5108422,8.63254526 20.1632114,8.47549784 C19.4388083,8.14821336 18.7209314,7.8056056 17.9896791,7.49442026 C17.6818514,7.36336422 17.4441314,7.20515302 17.3830052,6.85446336 C17.372796,6.79575647 17.3273068,6.74312716 17.2665683,6.62771767" id="Fill-1"></path>
            <path d="M7.81183846,6.63779095 C7.31061692,7.3522306 6.75117692,8.04080819 6.31450615,8.80018319 C5.78517692,9.72087284 5.34475846,10.6943858 4.89561692,11.6589116 C4.68639231,12.1081358 4.37029385,12.3086315 3.88852154,12.3108297 C2.99508462,12.3148384 2.10171231,12.330097 1.20834,12.3447091 C1.00454308,12.3480065 0.800875385,12.3651401 0.597530769,12.3800754 C0.196721538,12.4094935 0.00397384615,12.2422306 0.000678461538,11.8584375 C-0.00662307692,10.9972953 0.0280107692,10.9758297 0.890884615,10.9023168 C1.57619538,10.8439978 2.25762923,10.7407435 2.94190615,10.6679418 C3.11824154,10.6491918 3.19920462,10.5822091 3.24262615,10.4032435 C3.46561385,9.4846875 3.69958615,8.56865302 3.94105385,7.65475216 C3.98945077,7.47171336 4.06362923,7.2866056 4.16591538,7.12820043 C4.62707538,6.4140194 5.10400154,5.71005388 5.57226923,5.00046336 C5.81677385,4.62998922 5.77173692,4.5116056 5.34863538,4.38229526 C4.54792154,4.13757543 4.54779231,4.13751078 3.94111846,4.74501078 C3.60621692,5.08037716 3.27499846,5.41949353 2.93596154,5.75065733 C2.67575538,6.00475216 2.33704154,6.01904095 2.10042,5.79856681 C1.87639846,5.58966595 1.86005077,5.26606681 2.08568769,4.98520474 C2.65204154,4.2802694 3.21555231,3.57197198 3.81059538,2.8916056 C3.94118308,2.74231681 4.19634923,2.63059267 4.39685077,2.62613147 C5.50552154,2.60149784 6.61509692,2.60582974 7.72409077,2.62018319 C8.27487231,2.62735991 8.74146,2.85798491 9.12650308,3.25516164 C9.46935231,3.60889009 9.62552769,4.00548491 9.53803846,4.51328664 C9.45972462,4.96742457 9.45487846,5.43391164 9.40958308,5.89419181 C9.38477077,6.14654095 9.48001385,6.3191056 9.68852769,6.46335129 C10.2192138,6.83052802 10.7393031,7.21309267 11.26314,7.59009698 C11.5558477,7.80087284 11.6287985,8.01947198 11.4922015,8.27078664 C11.3613554,8.51162716 11.0936538,8.59496767 10.7906077,8.46067888 C9.96559846,8.09518319 9.13277077,7.7433944 8.33154,7.33082974 C8.11921385,7.22149784 8.00969077,6.91231681 7.81183846,6.63779095" id="Fill-3"></path>
            <path d="M13.0017655,9.15195259 C13.1135502,9.25481897 13.1718332,9.29826724 13.2177102,9.35231897 C13.5237932,9.7127069 13.8351102,10.0691509 14.128464,10.439819 C14.2842517,10.636694 14.5485932,10.8860043 14.5151871,11.0649698 C14.4492794,11.4169526 14.2419932,11.7595603 14.0275348,12.0589138 C13.9292548,12.1961121 13.6780948,12.2811336 13.4921317,12.2886336 C12.3108332,12.3362198 11.1284363,12.3600776 9.94623323,12.3812198 C9.58690708,12.3876207 9.43363938,12.2111767 9.42885785,11.8390862 C9.41832554,11.0240431 9.45883938,10.9916509 10.2777748,10.9055302 C10.9817594,10.8315647 11.6843225,10.7392371 12.3833963,10.6285474 C12.4929194,10.6112198 12.6302917,10.4702069 12.6686732,10.357125 C12.7950609,9.98471121 12.8819686,9.59891379 13.0017655,9.15195259" id="Fill-6"></path>
            <path d="M6.78613385,14.9864547 C6.15154615,14.9685453 5.91589385,14.6680927 6.04182923,14.0498599 C6.15949385,13.4722306 6.26094,12.8912392 6.38506615,12.315097 C6.45814615,11.9760453 6.35392154,11.6984806 6.13422923,11.4575108 C5.88649385,11.1857651 5.88804462,10.9267565 6.08008154,10.6166056 C6.31101692,10.2436746 6.50654308,9.8478556 6.70342615,9.45494612 C6.80868462,9.24488147 6.90412154,9.2347306 7.05254308,9.41130388 C7.40489077,9.83078664 7.78366615,10.229903 8.11049077,10.6680711 C8.22285692,10.8187177 8.28786,11.0779849 8.24650615,11.2582435 C7.99502308,12.3542134 7.71097385,13.4427478 7.42802308,14.5312823 C7.33962923,14.8712392 7.14326308,14.9964763 6.78613385,14.9864547" id="Fill-8"></path>
            <path d="M18.0102138,1.49748491 C18.0142846,0.668088362 18.6852508,-0.0032262931 19.5067708,6.46551723e-06 C20.3414723,0.00336853448 21.0057831,0.687614224 20.9984815,1.53640733 C20.9913738,2.35545905 20.3038015,3.02709698 19.4839615,3.01584698 C18.6594692,3.00466164 18.0061431,2.33140733 18.0102138,1.49748491" id="Fill-11"></path>
            <path d="M10.0382908,0.0389224138 C10.8696969,0.0369181034 11.5418908,0.692974138 11.5537154,1.51803879 C11.5656692,2.34795259 10.8796477,3.02922414 10.0349954,3.02618534 C9.20759538,3.02321121 8.53443231,2.3518319 8.53572462,1.53090517 C8.53714615,0.709073276 9.20998615,0.0409267241 10.0382908,0.0389224138" id="Fill-14"></path>
        </g>
    </g>
</svg>