<?xml version="1.0" encoding="UTF-8"?>
<svg width="14px" height="18px" viewBox="0 0 14 18" version="1.1" xmlns="http://www.w3.org/2000/svg" xmlns:xlink="http://www.w3.org/1999/xlink">
    <!-- Generator: Sketch 51.1 (57501) - http://www.bohemiancoding.com/sketch -->
    <title>Stopped Symbol</title>
    <desc>Created with Sketch.</desc>
    <defs></defs>
    <g id="Page-1" stroke="none" stroke-width="1" fill="none" fill-rule="evenodd">
        <g id="Stopped-Symbol" fill="#000000">
            <path d="M8.59172596,8.0255451 C8.79056976,8.0515731 8.95561718,8.07314631 9.14593623,8.09797303 C9.17473882,7.65734892 9.20727415,7.21832653 9.23143604,6.77885366 C9.30523322,5.43876172 9.37948439,4.09871983 9.44591698,2.75827751 C9.47436648,2.18385944 9.84093115,1.83353249 10.3991768,1.87097277 C10.7406212,1.89379733 10.9836525,2.0892076 11.0559869,2.42166532 C11.0893293,2.57493023 11.1031505,2.73515263 11.1034027,2.89222164 C11.1065301,4.66873317 11.1053699,6.44524469 11.1054204,8.22175622 C11.1054204,8.66863706 11.1614619,8.73931311 11.6549395,8.89437996 C11.7094173,8.22876376 11.7635924,7.56840321 11.8174648,6.90804266 C11.8682603,6.28517245 11.9101779,5.66150138 11.9721211,5.03978241 C12.0151485,4.6082681 12.40986,4.32206014 12.8972846,4.3422819 C13.2939129,4.35869957 13.5739689,4.64395651 13.5834521,5.08963606 C13.6056467,6.13185749 13.6144741,7.17437924 13.6212334,8.21685094 C13.6304643,9.6512944 13.6579554,11.0862384 13.6307166,12.5201813 C13.6051423,13.8689326 13.1059142,15.0583624 12.1909905,16.0532329 C9.82251969,18.6287041 5.88650186,18.6501772 3.47803021,16.1092432 C2.76775125,15.3599369 2.33747787,14.4663254 2.06887227,13.471555 C1.88990276,12.8086918 1.60036357,12.1747597 1.35294377,11.5306166 C0.929429663,10.4281803 0.498248318,9.32864723 0.0742297885,8.22636117 C-0.0807796025,7.82347767 0.0102688683,7.46198871 0.316605358,7.20871619 C0.619259554,6.95854701 1.02668254,6.91394902 1.34522609,7.12943088 C1.47708243,7.2185768 1.59410872,7.35492351 1.67047846,7.49522447 C2.29142399,8.63700302 2.90107043,9.7848381 3.51475225,10.9305209 C3.52630355,10.9520941 3.545169,10.969713 3.56933089,11.0001958 C3.80166843,10.8932808 3.92585754,10.7132871 3.94537873,10.4640189 C4.04863425,9.14354807 4.17151186,7.82412837 4.24556125,6.50205582 C4.33650884,4.87890931 4.37943529,3.25316001 4.45817582,1.62921264 C4.47668817,1.2473017 4.65560725,0.92315292 4.99856489,0.719383664 C5.29037398,0.545947046 5.57421317,0.613269485 5.76579328,0.890968289 C6.02214139,1.26256813 6.10113413,1.68367124 6.10118457,2.124896 C6.10128546,4.00982418 6.10128546,5.89475236 6.1013359,7.77968055 L6.1013359,8.07514847 C6.15132428,8.08120499 6.17588972,8.08996441 6.19818524,8.08601016 C6.66548332,8.00372161 6.65453733,8.00302086 6.67405852,7.52100221 C6.74800703,5.69663919 6.82932013,3.87252645 6.90871641,2.04836365 C6.92717832,1.62360661 6.93418981,1.19764828 6.9728791,0.774643123 C7.02130377,0.245273522 7.56063355,-0.120570126 8.03933161,0.0368492571 C8.42279447,0.162934925 8.53200219,0.484430855 8.5845127,0.834807861 C8.6016631,0.94923098 8.59152419,1.06790868 8.59152419,1.18468433 C8.5917764,3.36147656 8.59172596,5.53836889 8.59172596,7.71516112 L8.59172596,8.0255451 Z" id="Fill-1"></path>
        </g>
    </g>
</svg>